<?xml version="1.0" encoding="UTF-8"?>
<svg version="1.1" xmlns="http://www.w3.org/2000/svg" width="512" height="512">
<path d="M0 0 C7.22637336 4.13085018 11.12033732 9.69540483 13.69921875 17.54296875 C14.54161167 21.05953515 14.91528967 24.4294159 15.01171875 28.04296875 C15.04910156 28.96078125 15.08648437 29.87859375 15.125 30.82421875 C14.54225755 34.54521642 13.50494035 36.02703999 10.69921875 38.54296875 C7.85075213 39.19598859 5.33018039 39.58797479 2.44921875 39.85546875 C-12.85890259 41.87536567 -24.74630972 49.67420624 -36.30078125 59.54296875 C-36.96335937 60.10371094 -37.6259375 60.66445312 -38.30859375 61.2421875 C-50.44156243 72.44402137 -61.79561658 90.56068329 -62.67578125 107.23046875 C-62.36159953 118.61082866 -57.80254526 128.13278801 -50.30078125 136.54296875 C-48.17221172 138.29751618 -48.17221172 138.29751618 -46.30078125 139.54296875 C-45.55054688 139.14464844 -44.8003125 138.74632812 -44.02734375 138.3359375 C-28.38762875 130.24031676 -13.59901258 127.43381035 3.69921875 131.54296875 C5.6474361 132.30788149 7.58563408 133.0989204 9.51171875 133.91796875 C13.02912952 135.38469745 13.02912952 135.38469745 16.66015625 134.98046875 C18.39392581 133.9549177 18.39392581 133.9549177 19.92138672 132.73632812 C25.31568506 129.11543685 32.03548898 129.24732376 38.26171875 129.66796875 C39.04474365 129.71945068 39.82776855 129.77093262 40.63452148 129.82397461 C69.42770096 132.11517034 91.99604701 148.66600518 110.69921875 169.54296875 C118.9805049 179.30583635 125.60937655 190.31604578 131.69921875 201.54296875 C132.04549316 202.17799316 132.39176758 202.81301758 132.74853516 203.46728516 C144.04446622 224.63269865 150.82256209 248.97803303 154.69921875 272.54296875 C154.8600293 273.455625 155.02083984 274.36828125 155.18652344 275.30859375 C161.36489268 311.38517455 159.45202194 350.34741841 149.69921875 385.54296875 C149.51665527 386.21054199 149.3340918 386.87811523 149.14599609 387.56591797 C140.16224588 419.49431555 119.70749386 449.84016759 90.75585938 466.67285156 C75.38663656 475.19192225 58.89089298 480.43480415 41.31958008 481.71655273 C36.4575168 482.08901928 33.76120022 482.59102846 30.13671875 486.10546875 C20.02667328 494.83615918 7.58749175 499.56097617 -5.30078125 502.54296875 C-6.05198242 502.71731445 -6.80318359 502.89166016 -7.57714844 503.07128906 C-13.2699466 504.05716985 -19.09888535 503.83250607 -24.86328125 503.85546875 C-25.55419861 503.85908417 -26.24511597 503.86269958 -26.95697021 503.86642456 C-39.76331594 503.89334503 -51.71825695 502.33559012 -64.03515625 498.74609375 C-67.13974176 498.4677516 -68.38699897 499.47709571 -70.92578125 501.23046875 C-82.70349911 508.63903321 -94.87794276 510.77285487 -108.55078125 507.84765625 C-113.21323317 506.27142961 -116.92350796 504.10739753 -120.9140625 501.26171875 C-124.85797129 498.88344208 -127.1177512 498.17027481 -131.65625 499.05078125 C-133.60761429 499.56258424 -135.55153755 500.10335497 -137.48828125 500.66796875 C-156.80962466 505.38568114 -179.39186946 506.54796513 -198.30078125 499.54296875 C-199.36554688 499.16914063 -200.4303125 498.7953125 -201.52734375 498.41015625 C-209.67384433 495.29592438 -217.71702995 491.10025217 -223.9453125 484.91796875 C-228.08076706 481.42686343 -232.90563949 481.47989884 -238.11328125 481.04296875 C-265.50475267 478.05806999 -287.48715243 466.60344793 -307.30078125 447.54296875 C-308.25210938 446.70378906 -308.25210938 446.70378906 -309.22265625 445.84765625 C-336.57354591 420.97137089 -348.37609531 375.94026001 -350.30078125 340.54296875 C-351.15657592 317.85192976 -351.30559506 294.95429755 -347.30078125 272.54296875 C-347.1291748 271.55425781 -346.95756836 270.56554687 -346.78076172 269.546875 C-339.3892757 228.06471931 -322.82219555 188.26118793 -292.30078125 158.54296875 C-291.64335937 157.80046875 -291.64335937 157.80046875 -290.97265625 157.04296875 C-275.47960281 140.14145591 -251.23714937 130.59942982 -228.74023438 129.49169922 C-221.57291422 129.31889893 -214.59890228 130.04926749 -208.73828125 134.48046875 C-206.39081649 135.81685133 -206.39081649 135.81685133 -204.20703125 134.91015625 C-202.49434195 134.17846937 -200.78764687 133.43265346 -199.0859375 132.67578125 C-186.76184207 127.66317582 -171.55033872 128.64033744 -159.25 133.23828125 C-151.51693554 136.65926606 -144.28087395 140.79233849 -137.30078125 145.54296875 C-132.17536609 140.45160951 -131.15141593 135.91345173 -129.92578125 128.91796875 C-120.59280104 81.61032116 -91.10804666 40.3966345 -51.30078125 13.54296875 C-45.4070091 9.69360686 -39.38517141 6.08091278 -33.30078125 2.54296875 C-31.62435547 1.54136719 -31.62435547 1.54136719 -29.9140625 0.51953125 C-19.56727837 -5.24220736 -10.68534087 -4.98649241 0 0 Z " fill="#FD9600" transform="translate(352.30078125,3.45703125)"/>
<path d="M0 0 C7.22637336 4.13085018 11.12033732 9.69540483 13.69921875 17.54296875 C14.54161167 21.05953515 14.91528967 24.4294159 15.01171875 28.04296875 C15.04910156 28.96078125 15.08648437 29.87859375 15.125 30.82421875 C14.54225755 34.54521642 13.50494035 36.02703999 10.69921875 38.54296875 C7.85075213 39.19598859 5.33018039 39.58797479 2.44921875 39.85546875 C-12.85890259 41.87536567 -24.74630972 49.67420624 -36.30078125 59.54296875 C-36.96335937 60.10371094 -37.6259375 60.66445312 -38.30859375 61.2421875 C-50.44156243 72.44402137 -61.79561658 90.56068329 -62.67578125 107.23046875 C-62.36159953 118.61082866 -57.80254526 128.13278801 -50.30078125 136.54296875 C-48.17221172 138.29751618 -48.17221172 138.29751618 -46.30078125 139.54296875 C-45.55054688 139.14464844 -44.8003125 138.74632812 -44.02734375 138.3359375 C-28.38762875 130.24031676 -13.59901258 127.43381035 3.69921875 131.54296875 C5.6474361 132.30788149 7.58563408 133.0989204 9.51171875 133.91796875 C13.02912952 135.38469745 13.02912952 135.38469745 16.66015625 134.98046875 C18.39392581 133.9549177 18.39392581 133.9549177 19.92138672 132.73632812 C25.31568506 129.11543685 32.03548898 129.24732376 38.26171875 129.66796875 C39.04474365 129.71945068 39.82776855 129.77093262 40.63452148 129.82397461 C69.42770096 132.11517034 91.99604701 148.66600518 110.69921875 169.54296875 C118.9805049 179.30583635 125.60937655 190.31604578 131.69921875 201.54296875 C132.04549316 202.17799316 132.39176758 202.81301758 132.74853516 203.46728516 C144.04446622 224.63269865 150.82256209 248.97803303 154.69921875 272.54296875 C154.8600293 273.455625 155.02083984 274.36828125 155.18652344 275.30859375 C161.36489268 311.38517455 159.45202194 350.34741841 149.69921875 385.54296875 C149.51665527 386.21054199 149.3340918 386.87811523 149.14599609 387.56591797 C140.16224588 419.49431555 119.70749386 449.84016759 90.75585938 466.67285156 C75.38663656 475.19192225 58.89089298 480.43480415 41.31958008 481.71655273 C36.4575168 482.08901928 33.76120022 482.59102846 30.13671875 486.10546875 C20.02667328 494.83615918 7.58749175 499.56097617 -5.30078125 502.54296875 C-6.05198242 502.71731445 -6.80318359 502.89166016 -7.57714844 503.07128906 C-13.2699466 504.05716985 -19.09888535 503.83250607 -24.86328125 503.85546875 C-25.55419861 503.85908417 -26.24511597 503.86269958 -26.95697021 503.86642456 C-39.76331594 503.89334503 -51.71825695 502.33559012 -64.03515625 498.74609375 C-67.13974176 498.4677516 -68.38699897 499.47709571 -70.92578125 501.23046875 C-82.70349911 508.63903321 -94.87794276 510.77285487 -108.55078125 507.84765625 C-113.21323317 506.27142961 -116.92350796 504.10739753 -120.9140625 501.26171875 C-124.85797129 498.88344208 -127.1177512 498.17027481 -131.65625 499.05078125 C-133.60761429 499.56258424 -135.55153755 500.10335497 -137.48828125 500.66796875 C-156.80962466 505.38568114 -179.39186946 506.54796513 -198.30078125 499.54296875 C-199.36554688 499.16914063 -200.4303125 498.7953125 -201.52734375 498.41015625 C-209.67384433 495.29592438 -217.71702995 491.10025217 -223.9453125 484.91796875 C-228.08076706 481.42686343 -232.90563949 481.47989884 -238.11328125 481.04296875 C-265.50475267 478.05806999 -287.48715243 466.60344793 -307.30078125 447.54296875 C-308.25210938 446.70378906 -308.25210938 446.70378906 -309.22265625 445.84765625 C-336.57354591 420.97137089 -348.37609531 375.94026001 -350.30078125 340.54296875 C-351.15657592 317.85192976 -351.30559506 294.95429755 -347.30078125 272.54296875 C-347.1291748 271.55425781 -346.95756836 270.56554687 -346.78076172 269.546875 C-339.3892757 228.06471931 -322.82219555 188.26118793 -292.30078125 158.54296875 C-291.64335937 157.80046875 -291.64335937 157.80046875 -290.97265625 157.04296875 C-275.47960281 140.14145591 -251.23714937 130.59942982 -228.74023438 129.49169922 C-221.57291422 129.31889893 -214.59890228 130.04926749 -208.73828125 134.48046875 C-206.39081649 135.81685133 -206.39081649 135.81685133 -204.20703125 134.91015625 C-202.49434195 134.17846937 -200.78764687 133.43265346 -199.0859375 132.67578125 C-186.76184207 127.66317582 -171.55033872 128.64033744 -159.25 133.23828125 C-151.51693554 136.65926606 -144.28087395 140.79233849 -137.30078125 145.54296875 C-132.17536609 140.45160951 -131.15141593 135.91345173 -129.92578125 128.91796875 C-120.59280104 81.61032116 -91.10804666 40.3966345 -51.30078125 13.54296875 C-45.4070091 9.69360686 -39.38517141 6.08091278 -33.30078125 2.54296875 C-31.62435547 1.54136719 -31.62435547 1.54136719 -29.9140625 0.51953125 C-19.56727837 -5.24220736 -10.68534087 -4.98649241 0 0 Z M-128.7578125 157.53125 C-135.69753976 166.63255405 -141.01220737 176.71599068 -146.33618164 186.81567383 C-147.30078125 188.54296875 -147.30078125 188.54296875 -148.30078125 189.54296875 C-151.73828125 189.79296875 -151.73828125 189.79296875 -155.30078125 189.54296875 C-157.70005854 185.94405281 -157.80590741 184.7969234 -157.30078125 180.54296875 C-156.07680112 177.51219554 -154.52682509 174.70149608 -152.92578125 171.85546875 C-152.51328125 171.09685547 -152.10078125 170.33824219 -151.67578125 169.55664062 C-149.9816832 166.46081307 -148.26015813 163.48203406 -146.30078125 160.54296875 C-146.21108557 158.51908356 -146.21108557 158.51908356 -147.30078125 156.54296875 C-159.47309615 146.12118743 -171.6628622 143.4636476 -187.18359375 144.36279297 C-200.34601631 145.48293456 -210.10711105 153.73886085 -219.30078125 162.54296875 C-219.91695313 163.09597656 -220.533125 163.64898437 -221.16796875 164.21875 C-226.89200616 169.53392759 -231.12984668 175.99066196 -235.30078125 182.54296875 C-235.85403076 183.41042725 -235.85403076 183.41042725 -236.41845703 184.29541016 C-246.29909145 200.09656613 -252.58665774 217.88791817 -258.30078125 235.54296875 C-261.61328125 236.23046875 -261.61328125 236.23046875 -265.30078125 236.54296875 C-267.0234375 235.34375 -267.0234375 235.34375 -268.30078125 233.54296875 C-271.27555968 214.67852019 -253.60541647 185.67850358 -243.203125 171.04296875 C-239.98001352 166.80725757 -236.70768197 162.63267212 -233.30078125 158.54296875 C-232.77613281 157.89457031 -232.25148438 157.24617188 -231.7109375 156.578125 C-228.64584144 152.86261068 -225.36591428 149.73855263 -221.62109375 146.70703125 C-221.18539062 146.32289063 -220.7496875 145.93875 -220.30078125 145.54296875 C-220.30078125 145.21296875 -220.30078125 144.88296875 -220.30078125 144.54296875 C-243.10859066 143.81333504 -262.57969704 150.28385923 -279.61328125 166.04296875 C-281.52450291 167.86113238 -283.41231497 169.70096257 -285.30078125 171.54296875 C-285.99558594 172.16429687 -286.69039062 172.785625 -287.40625 173.42578125 C-319.52431623 202.96115762 -334.37813654 256.64379935 -336.41015625 298.81274414 C-338.21510958 348.32076805 -332.0177592 397.54658662 -298.48828125 436.29296875 C-284.75697116 450.90531751 -264.48844863 464.52055095 -243.92578125 465.53515625 C-243.12140625 465.53902344 -243.12140625 465.53902344 -242.30078125 465.54296875 C-244.81963173 460.92879133 -247.39197083 456.37805211 -250.17578125 451.91796875 C-256.6358718 441.1018375 -261.0831012 429.7754138 -265.23828125 417.91796875 C-265.64022705 416.77908203 -266.04217285 415.64019531 -266.45629883 414.46679688 C-266.82650146 413.38591797 -267.1967041 412.30503906 -267.578125 411.19140625 C-267.91062256 410.22380371 -268.24312012 409.25620117 -268.58569336 408.25927734 C-269.4852579 404.84222201 -270.05225308 401.90501145 -268.30078125 398.73046875 C-265.06089163 396.80678429 -262.01819935 397.36014491 -258.30078125 397.54296875 C-258.11515625 398.36861328 -258.11515625 398.36861328 -257.92578125 399.2109375 C-250.34512152 429.77047204 -235.01902553 462.74147686 -207.41650391 479.70068359 C-187.58690466 491.30496707 -162.57931351 492.92851853 -140.484375 487.19921875 C-139.76378906 486.98265625 -139.04320312 486.76609375 -138.30078125 486.54296875 C-139.8168992 483.24268989 -141.72049579 480.26081172 -143.67822266 477.21289062 C-158.61123648 453.90336327 -158.61123648 453.90336327 -157.30078125 444.54296875 C-151.44140625 443.37109375 -151.44140625 443.37109375 -149.30078125 443.54296875 C-145.34242414 446.49844075 -143.63200254 450.60838849 -141.61328125 454.98046875 C-133.87453756 470.9767851 -123.53281192 485.82835323 -106.9140625 493.34765625 C-98.53891892 496.11824429 -91.07333147 495.75767831 -83.05078125 492.10546875 C-66.72677853 482.82701833 -56.07060314 466.97354514 -48.25634766 450.31665039 C-47.746604 449.23371704 -47.746604 449.23371704 -47.2265625 448.12890625 C-46.778573 447.14156494 -46.778573 447.14156494 -46.3215332 446.13427734 C-45.30078125 444.54296875 -45.30078125 444.54296875 -42.30078125 443.35546875 C-39.30078125 443.54296875 -39.30078125 443.54296875 -36.92578125 444.60546875 C-35.30078125 446.54296875 -35.30078125 446.54296875 -34.88671875 449.02734375 C-35.49722706 454.21090485 -37.83099035 458.18374399 -40.30078125 462.73046875 C-41.04485229 464.12906128 -41.04485229 464.12906128 -41.80395508 465.5559082 C-45.10134855 471.64368971 -48.62180998 477.25696677 -52.9375 482.6796875 C-54.49760896 484.4271928 -54.49760896 484.4271928 -54.30078125 486.54296875 C-29.75938979 492.01107719 -5.2607118 491.79377607 16.69921875 478.54296875 C36.00317245 466.06742852 48.08565361 446.01937532 56.38671875 425.10546875 C56.84626953 423.98076172 57.30582031 422.85605469 57.77929688 421.69726562 C60.5202006 414.8899712 62.83801955 408.07562512 64.81567383 401.00756836 C65.69921875 398.54296875 65.69921875 398.54296875 67.69921875 397.54296875 C70.77077144 397.28156001 72.89860275 397.10392127 75.63671875 398.60546875 C78.05283473 403.01132731 75.43720672 408.70778961 74.13671875 413.23046875 C68.54472951 430.77356857 61.37027796 447.89311338 50.73046875 463.00390625 C49.60644459 464.37265765 49.60644459 464.37265765 49.69921875 465.54296875 C67.17149763 465.46074626 84.90378542 454.54295051 97.69921875 443.54296875 C98.31152344 443.0634375 98.92382812 442.58390625 99.5546875 442.08984375 C126.66506606 420.50080087 138.23239923 381.30124795 142.69921875 348.54296875 C148.81187625 290.3398386 138.19924473 227.66093261 101.32421875 180.85546875 C86.29586964 163.11147059 68.25451456 148.76835171 44.69921875 144.54296875 C39.03064842 144.13650621 33.37157319 144.29574749 27.69921875 144.54296875 C30.40206752 147.76595336 33.09829626 150.94204626 36.07421875 153.91796875 C54.42417987 172.26792987 74.09736832 203.71660015 75.94921875 230.10546875 C75.69921875 233.54296875 75.69921875 233.54296875 74.63671875 235.54296875 C71.61628388 237.10190288 68.96139897 236.0860369 65.69921875 235.54296875 C65.17134766 233.99802734 65.17134766 233.99802734 64.6328125 232.421875 C55.74398428 206.66260063 45.78646165 182.5138803 26.69921875 162.54296875 C26.126875 161.90746094 25.55453125 161.27195313 24.96484375 160.6171875 C15.77096686 150.74471494 3.920685 144.58735539 -9.54541016 144.02124023 C-24.43791372 143.79040228 -34.70974441 148.18187086 -46.30078125 157.54296875 C-45.73063013 162.16557862 -43.71614247 165.67848091 -41.36328125 169.60546875 C-34.79772081 180.75165276 -34.79772081 180.75165276 -35.30078125 187.54296875 C-37.30078125 189.54296875 -37.30078125 189.54296875 -40.61328125 190.16796875 C-44.30078125 189.54296875 -44.30078125 189.54296875 -45.625 188.2109375 C-46.9969717 186.04586588 -48.15419451 183.83614222 -49.30078125 181.54296875 C-53.74027818 173.01474996 -58.38300756 165.13581475 -64.30078125 157.54296875 C-64.7803125 156.89714844 -65.25984375 156.25132812 -65.75390625 155.5859375 C-71.36130711 148.44778066 -80.15970428 141.14265722 -89.30078125 139.54296875 C-106.4185482 137.63881348 -118.0659753 144.52766421 -128.7578125 157.53125 Z " fill="#020100" transform="translate(352.30078125,3.45703125)"/>
<path d="M0 0 C2.4375 2 2.4375 2 5 5 C5.61617187 5.67417969 6.23234375 6.34835937 6.8671875 7.04296875 C12 12.70143072 12 12.70143072 12 15 C13.25160238 13.91851833 14.50120381 12.83472078 15.75 11.75 C16.48605469 11.11449219 17.22210938 10.47898437 17.98046875 9.82421875 C20.1019282 7.98953403 20.1019282 7.98953403 22.0625 5.5625 C24 4 24 4 27.5625 3.5625 C31 4 31 4 32.9375 5.0625 C34.63140851 8.151392 34.35017551 10.53472154 34 14 C31.84765625 16.80078125 31.84765625 16.80078125 29.0625 19.3125 C25.56996229 22.30470016 25.56996229 22.30470016 23 26 C23.52980469 26.22945313 24.05960938 26.45890625 24.60546875 26.6953125 C28.37695819 28.75025128 31.61434451 31.51728138 34.95898438 34.19140625 C38.797322 37.2095088 42.71068346 39.66234967 47 42 C47.11085937 41.28328125 47.22171875 40.5665625 47.3359375 39.828125 C48.47889757 34.96045978 50.83349041 30.85211545 54 27 C57.88572554 25.59309937 59.63973798 25.44194379 63.4375 27 C65.78901029 30.00993317 65.28089565 32.24831148 65 36 C63.6875 39.52734375 63.6875 39.52734375 62 42.9375 C61.443125 44.08089844 60.88625 45.22429687 60.3125 46.40234375 C59.879375 47.25957031 59.44625 48.11679687 59 49 C67.98559211 51.71554749 76.99304412 54.3564271 86 57 C86.07347656 56.02160156 86.07347656 56.02160156 86.1484375 55.0234375 C86.63874467 49.29191579 87.11731385 44.07175108 90.1875 39.0625 C92 38 92 38 95.5 38.0625 C99 39 99 39 100.76953125 40.51171875 C102.65845687 44.33154612 101.82350651 47.64065885 101.1875 51.75 C100.795625 54.4725 100.40375 57.195 100 60 C109.24 60 118.48 60 128 60 C127.01 54.555 127.01 54.555 126 49 C125.41666667 42.875 125.41666667 42.875 127.625 39.5625 C130.71685231 37.52838664 132.36367425 37.39394571 136 38 C138.78335265 39.70093773 139.76355271 41.20333384 140.6875 44.31640625 C141.6073038 48.60243646 142.0942171 52.61105345 142 57 C152.49484665 53.85441463 152.49484665 53.85441463 162.8125 50.1875 C166 49 166 49 169 49 C168.566875 48.13117188 168.13375 47.26234375 167.6875 46.3671875 C167.130625 45.21476562 166.57375 44.06234375 166 42.875 C165.443125 41.73804688 164.88625 40.60109375 164.3125 39.4296875 C162.97975008 35.94708503 162.61411709 33.68438892 163 30 C164.5625 27.5625 164.5625 27.5625 167 26 C170.375 25.625 170.375 25.625 174 27 C177.36170363 31.16461052 179.94231487 35.72387303 181 41 C187.44430647 38.14963368 192.73796917 34.33386342 198.265625 30.0234375 C200.48436436 28.38157038 202.49010613 27.11152443 205 26 C203.91851833 24.74839762 202.83472078 23.49879619 201.75 22.25 C201.11449219 21.51394531 200.47898437 20.77789062 199.82421875 20.01953125 C197.98953403 17.8980718 197.98953403 17.8980718 195.5625 15.9375 C194 14 194 14 193.5625 10.4375 C194 7 194 7 195.0625 5.0625 C198.151392 3.36859149 200.53472154 3.64982449 204 4 C206.80078125 6.15234375 206.80078125 6.15234375 209.3125 8.9375 C212.30470016 12.43003771 212.30470016 12.43003771 216 15 C216.36351562 14.18789063 216.36351562 14.18789063 216.734375 13.359375 C218.31457762 10.41356517 220.19760419 7.88879462 222.25 5.25 C223.37148438 3.77273438 223.37148438 3.77273438 224.515625 2.265625 C227 0 227 0 230.1484375 -0.39453125 C233.46039049 0.06369786 234.84097876 0.42578237 237 3 C237.75003556 6.06264522 237.91479857 7.08780101 237 10 C234.61054014 13.58694898 231.83603555 16.76268983 229 20 C227.98674944 21.32329176 226.98157451 22.65304445 226 24 C227.45437982 27.4522384 229.33157279 29.3544843 232.125 31.8125 C235.12711157 34.73288439 235.91987477 35.55566919 236.6875 39.8125 C236 43 236 43 234.9375 44.9375 C231.84494862 46.63341528 229.4701554 46.35357676 226 46 C223.12890625 43.8125 223.12890625 43.8125 220.5625 41 C219.69753906 40.071875 218.83257812 39.14375 217.94140625 38.1875 C217.30074219 37.465625 216.66007813 36.74375 216 36 C213.19827904 37.31614113 210.80405622 38.78983592 208.35546875 40.6796875 C207.33936523 41.45505859 207.33936523 41.45505859 206.30273438 42.24609375 C204.90371082 43.32345815 203.50526349 44.40157127 202.10742188 45.48046875 C197.88864399 48.69743656 193.6675456 51.47403415 189 54 C189.44472656 54.85722656 189.88945312 55.71445312 190.34765625 56.59765625 C190.91355469 57.74105469 191.47945312 58.88445312 192.0625 60.0625 C192.91521484 61.75052734 192.91521484 61.75052734 193.78515625 63.47265625 C195.18549323 67.53858645 195.12624838 69.87378955 194 74 C190.50434664 76.33043558 189.1134271 76.58763244 185 76 C180.96083086 72.20562899 178.58366632 66.86025754 176 62 C169.96005392 62.77187809 164.50990665 64.7898816 158.80859375 66.828125 C153.83608287 68.55035288 149.24471167 69.52212194 144 70 C144.33 70.9075 144.66 71.815 145 72.75 C146.4719661 77.95521345 146.91963674 83.66922433 146 89 C143.57987858 91.42012142 142.35734202 91.94895114 138.9375 92.4375 C136 92 136 92 134.390625 90.28125 C132.88599657 87.81298314 132.32350864 85.89706932 131.8125 83.0625 C131.65394531 82.22847656 131.49539063 81.39445312 131.33203125 80.53515625 C130.99893242 77.99184871 130.94042266 75.56182553 131 73 C129.91203125 73.16242188 128.8240625 73.32484375 127.703125 73.4921875 C122.38545213 74.15513967 117.10195165 74.14646505 111.75 74.125 C110.7703125 74.12886719 109.790625 74.13273437 108.78125 74.13671875 C107.83765625 74.13542969 106.8940625 74.13414062 105.921875 74.1328125 C105.07206055 74.13168457 104.22224609 74.13055664 103.34667969 74.12939453 C101.09965443 74.00549489 99.15568217 73.62630466 97 73 C96.95101562 73.64066406 96.90203125 74.28132813 96.8515625 74.94140625 C96.39778189 80.19117848 95.85611524 85.05035937 94 90 C90.53076119 92.31282587 89.07794425 92.42478586 85 92 C82.93300127 90.44574514 82.09936663 89.58145508 81.65942383 87.00708008 C81.67513428 86.26868896 81.69084473 85.53029785 81.70703125 84.76953125 C81.71669922 83.96708984 81.72636719 83.16464844 81.73632812 82.33789062 C81.76146484 81.50451172 81.78660156 80.67113281 81.8125 79.8125 C81.82603516 78.96751953 81.83957031 78.12253906 81.85351562 77.25195312 C81.88884201 75.16769616 81.94264861 73.08376723 82 71 C80.33324219 70.52820313 80.33324219 70.52820313 78.6328125 70.046875 C71.22635287 67.92420066 63.9483687 65.81347958 56.8828125 62.69921875 C54.86602072 61.82593115 54.86602072 61.82593115 52 62 C50.13647942 64.62064656 50.13647942 64.62064656 48.4375 67.875 C45.15748031 73.84251969 45.15748031 73.84251969 43 76 C39.42157414 76.4667512 37.62756672 76.40228636 34.5625 74.4375 C32.82388001 71.72525281 32.66068244 70.28624939 33.3046875 67.1484375 C34.7800426 62.58975602 36.89488618 58.29567507 39 54 C38.11699219 53.45472656 37.23398438 52.90945313 36.32421875 52.34765625 C28.39133865 47.38489084 21.09577216 42.12553392 14 36 C10.5477616 37.45437982 8.6455157 39.33157279 6.1875 42.125 C3.26711561 45.12711157 2.44433081 45.91987477 -1.8125 46.6875 C-5 46 -5 46 -6.9375 44.9375 C-8.63341528 41.84494862 -8.35357676 39.4701554 -8 36 C-5.8125 33.12890625 -5.8125 33.12890625 -3 30.5625 C-2.071875 29.69753906 -1.14375 28.83257812 -0.1875 27.94140625 C0.8953125 26.98041016 0.8953125 26.98041016 2 26 C0.70083298 22.27139065 -0.82368581 19.76678016 -3.5 16.875 C-8.91241304 10.98097393 -8.91241304 10.98097393 -9.3125 6.5 C-9 3 -9 3 -7.875 1.0625 C-5.01486651 -0.55824231 -3.23391331 -0.51742613 0 0 Z " fill="#040200" transform="translate(142,322)"/>
<path d="M0 0 C2.7535649 2.30531015 4.24878183 3.97291971 5.6875 7.25 C5.73153748 8.91608478 5.73756087 10.58408533 5.6875 12.25 C4.70652344 12.4459375 3.72554688 12.641875 2.71484375 12.84375 C-23.01325314 18.37964689 -43.57560184 35.3896862 -57.796875 57.18359375 C-68.26264239 73.78596307 -73.03655706 89.21490038 -68.95703125 108.9375 C-68.12246804 111.93181163 -66.83616226 114.54896236 -65.3125 117.25 C-65.3125 117.91 -65.3125 118.57 -65.3125 119.25 C-69.38583228 117.92616701 -73.3905601 116.48079197 -77.3828125 114.93359375 C-87.40838881 111.3820232 -99.55429825 112.30918776 -109.3125 116.25 C-104.14781321 81.80100666 -81.85803507 48.25170474 -55.3125 26.25 C-54.00732422 25.11304688 -54.00732422 25.11304688 -52.67578125 23.953125 C-42.35752012 15.08134907 -31.25423046 7.69140068 -19.375 1.0625 C-18.68962158 0.66345459 -18.00424316 0.26440918 -17.2980957 -0.14672852 C-11.08640716 -3.49102026 -6.38451312 -3.37295033 0 0 Z " fill="#5ECD71" transform="translate(346.3125,16.75)"/>
<path d="M0 0 C11.18931086 -1.07458321 11.18931086 -1.07458321 15.15234375 1.27734375 C16.39128675 2.47291019 17.60744207 3.69236691 18.8046875 4.9296875 C29.97914551 15.46787744 47.50475913 20.8985391 62.48828125 21.31640625 C63.5430793 21.3475779 63.5430793 21.3475779 64.6191864 21.37937927 C66.85019817 21.44440115 69.08132069 21.50353776 71.3125 21.5625 C72.83139134 21.60573036 74.35027177 21.64934605 75.86914062 21.69335938 C79.5793112 21.80003334 83.28960421 21.90143221 87 22 C87.33 21.34 87.66 20.68 88 20 C89.65009317 22.43471098 91.29518398 24.87255165 92.9375 27.3125 C93.40607422 28.00279297 93.87464844 28.69308594 94.35742188 29.40429688 C95.0293457 30.40493164 95.0293457 30.40493164 95.71484375 31.42578125 C96.33540649 32.34484253 96.33540649 32.34484253 96.96850586 33.2824707 C98 35 98 35 99 38 C78.1151956 44.27664962 52.9679583 43.28929879 33.52978516 33.19433594 C28.25291371 30.30308038 23.54913608 26.93945804 19 23 C18.18917969 22.38125 17.37835938 21.7625 16.54296875 21.125 C9.67823448 15.38857075 4.48816522 7.67331474 0 0 Z " fill="#F97700" transform="translate(115,452)"/>
<path d="M0 0 C1.65322266 0.01740234 1.65322266 0.01740234 3.33984375 0.03515625 C4.44457031 0.04417969 5.54929687 0.05320312 6.6875 0.0625 C7.54214844 0.07410156 8.39679688 0.08570313 9.27734375 0.09765625 C3.95073294 15.09696827 -11.20094837 26.77267457 -24.72265625 34.09765625 C-25.46902344 34.51789063 -26.21539062 34.938125 -26.984375 35.37109375 C-45.34491153 44.67376559 -69.34526104 42.41516606 -88.72265625 38.09765625 C-87.35676011 34.30576548 -85.61810976 31.25384247 -83.28515625 27.97265625 C-82.68832031 27.12445313 -82.09148437 26.27625 -81.4765625 25.40234375 C-79.99426841 23.45456309 -78.50552823 21.76603186 -76.72265625 20.09765625 C-76.06265625 20.42765625 -75.40265625 20.75765625 -74.72265625 21.09765625 C-49.01240881 22.75675099 -25.68001012 19.92604995 -5.4453125 2.6640625 C-2.61880929 0.09393147 -2.61880929 0.09393147 0 0 Z " fill="#F97700" transform="translate(386.72265625,451.90234375)"/>
<path d="M0 0 C3.43318929 2.87792002 5.01921214 5.81297045 6.8125 9.875 C9.44908852 15.29318942 11.8905327 18.79863252 17 22 C17.62132812 22.40992188 18.24265625 22.81984375 18.8828125 23.2421875 C26.61496577 27.50516174 36.53345795 27.21398897 44.97265625 25.33984375 C52.3997564 22.68812793 58.74738905 18.00522191 62.3125 10.875 C62.8798075 9.58543758 63.44273802 8.29393513 64 7 C65.54222843 4.27144201 66.78825616 2.21174384 69 0 C72.36698577 0.18365377 75.03575743 0.45761356 78 2.125 C79.25271211 4.47383521 79.20817515 6.18511189 78.70703125 8.7734375 C74.78783055 21.11567176 68.01748389 29.43096474 57 36 C45.36691538 41.52529913 31.38187988 43.63507891 18.9375 39.375 C6.79940461 34.06690324 -2.34001454 25.99056968 -7.9296875 13.91015625 C-9.43080449 9.82865203 -9.77953936 7.2874665 -9 3 C-6.40390408 -0.07685443 -3.9263577 -0.6871126 0 0 Z " fill="#050300" transform="translate(148,250)"/>
<path d="M0 0 C2.58023623 2.11810437 3.63090688 4.16382984 4.8125 7.25 C8.4203623 15.60504954 13.68759345 20.34254112 22 24 C30.26155988 26.7715062 41.09481795 25.97484789 48.86328125 22.23828125 C56.39693458 17.87234321 59.5597814 12.74922787 63.421875 4.92578125 C65.74117627 0.62588854 65.74117627 0.62588854 68 -1 C74.33333333 -0.66666667 74.33333333 -0.66666667 77 2 C78.03378877 10.27031017 74.93809443 16.14694773 69.98046875 22.6484375 C61.01746454 33.10265958 50.79182451 39.27168362 36.84375 40.41796875 C23.90664592 41.04954621 12.79802874 37.7334979 3 29 C2.40832031 28.52304687 1.81664062 28.04609375 1.20703125 27.5546875 C-4.63324161 22.42349854 -8.45938497 15.27919636 -11 8 C-10.78015641 4.48250252 -10.63237357 2.72605855 -8.3125 0.0625 C-5.12702876 -1.40109489 -3.32118677 -0.98928968 0 0 Z " fill="#050300" transform="translate(296,251)"/>
<path d="M0 0 C4.01628463 2.06241643 6.125395 3.85613631 8 8 C8.04641405 9.66602026 8.05292758 11.33417394 8 13 C7.01902344 13.1959375 6.03804688 13.391875 5.02734375 13.59375 C-20.70075314 19.12964689 -41.26310184 36.1396862 -55.484375 57.93359375 C-65.95014239 74.53596307 -70.72405706 89.96490038 -66.64453125 109.6875 C-65.80996804 112.68181163 -64.52366226 115.29896236 -63 118 C-63 118.66 -63 119.32 -63 120 C-69.14841573 118.00176489 -75.24555902 115.96673401 -81 113 C-81.65379667 82.6710989 -72.02838138 60.07402348 -50.99609375 38 C-38.50380241 25.27997382 -23.77053994 14.95257657 -8.5625 5.75 C-7.92965088 5.36690674 -7.29680176 4.98381348 -6.64477539 4.58911133 C-2.25802387 2 -2.25802387 2 0 2 C0 1.34 0 0.68 0 0 Z " fill="#54B75B" transform="translate(344,16)"/>
<path d="M0 0 C3.41008694 2.77858936 4.9101079 6.6191814 6.75 10.5 C18.82840651 35.16249785 37.29164393 54.88328667 62.625 66.125 C63.28773926 66.42035645 63.95047852 66.71571289 64.63330078 67.02001953 C68.21138458 68.52257637 71.11433419 69.34241499 75 69 C75.43570313 69.83402344 75.87140625 70.66804688 76.3203125 71.52734375 C79.58248728 77.69158312 82.93218425 83.66537067 86.93359375 89.390625 C88 91 88 91 88 92 C67.17208283 91.89986578 47.30158183 78.05707234 33 64 C25.75089284 56.51405774 20.09393096 48.05587727 15 39 C14.41605469 37.96875 13.83210938 36.9375 13.23046875 35.875 C0 11.02680587 0 11.02680587 0 0 Z " fill="#F77600" transform="translate(22,377)"/>
<path d="M0 0 C1.63098121 3.26196241 -0.08801014 5.95441241 -1.19702148 9.2878418 C-7.34263766 26.94099246 -14.90608598 43.58924421 -27 58 C-27.56976563 58.71929687 -28.13953125 59.43859375 -28.7265625 60.1796875 C-41.49246118 75.72867309 -61.52751463 87.30450707 -81 92 C-82.99908022 92.06064887 -85.00146464 92.07652713 -87 92 C-82.75381976 84.28338399 -78.38023481 76.6409555 -74 69 C-73.34 69.33 -72.68 69.66 -72 70 C-69.63828308 69.25101561 -67.41119247 68.43849755 -65.125 67.5 C-64.45388184 67.22663818 -63.78276367 66.95327637 -63.09130859 66.67163086 C-53.13012383 62.49851067 -44.24547255 56.96122195 -36 50 C-35.19949219 49.33355469 -34.39898437 48.66710937 -33.57421875 47.98046875 C-18.33206655 34.82433427 -8.42182319 18.09994045 0 0 Z " fill="#F87600" transform="translate(489,377)"/>
<path d="M0 0 C1.7289293 1.24266794 3.42982501 2.52416701 5.125 3.8125 C15.01368728 10.7988472 25.17424674 11.78818652 37 10.4375 C40.43096681 9.59860976 43.060222 8.37187393 46 6.4375 C46.78890625 5.92058594 47.5778125 5.40367187 48.390625 4.87109375 C49.92952594 3.84102296 51.45384688 2.78855735 52.95703125 1.70703125 C55.80593524 -0.06332018 57.80174589 -0.75273377 61.140625 -0.22265625 C63.09375 0.33072917 65.046875 0.88411458 67 1.4375 C64.38599403 6.31738498 61.55160857 10.45205252 57.75 14.5 C57.26547363 15.01949219 56.78094727 15.53898437 56.28173828 16.07421875 C52.49207339 20.06307595 48.70203909 23.57456491 44 26.4375 C43.34 26.84742188 42.68 27.25734375 42 27.6796875 C35.30829772 31.24695526 28.41404722 31.56179348 21 30.4375 C8.09316064 26.29439052 -3.25961769 16.17075809 -10 4.4375 C-9.67 3.4475 -9.34 2.4575 -9 1.4375 C-3.14186249 -0.88364883 -3.14186249 -0.88364883 0 0 Z " fill="#F97700" transform="translate(228,467.5625)"/>
<path d="M0 0 C1 2 1 2 0.44140625 3.9453125 C0.15136719 4.66460937 -0.13867188 5.38390625 -0.4375 6.125 C-0.72496094 6.84945313 -1.01242187 7.57390625 -1.30859375 8.3203125 C-1.53675781 8.87460937 -1.76492188 9.42890625 -2 10 C-2.66 10 -3.32 10 -4 10 C-3.52449439 8.51965236 -3.04448784 7.04074979 -2.5625 5.5625 C-2.29566406 4.73878906 -2.02882813 3.91507812 -1.75390625 3.06640625 C-1 1 -1 1 0 0 Z " fill="#DE6C00" transform="translate(489,377)"/>
</svg>
